<svg version="1.1" id="Layer_1" xmlns="http://www.w3.org/2000/svg" xmlns:xlink="http://www.w3.org/1999/xlink" x="0px" y="0px"
	 width="100%" viewBox="0 0 225 225" enable-background="new 0 0 225 225" xml:space="preserve">
<path fill="#120D24" opacity="1.000000" stroke="none" 
	d="
M116.000000,226.000000 
	C77.333336,226.000000 39.166672,226.000000 1.000005,226.000000 
	C1.000003,151.000000 1.000003,76.000015 1.000002,1.000015 
	C75.999992,1.000010 150.999985,1.000010 225.999969,1.000005 
	C225.999985,75.999985 225.999985,150.999969 226.000000,225.999969 
	C189.500000,226.000000 153.000000,226.000000 116.000000,226.000000 
M134.195984,148.433746 
	C134.469208,148.664841 134.742432,148.895935 135.682663,149.625656 
	C146.600418,149.625656 157.518188,149.625656 168.281479,149.625656 
	C158.989380,139.925751 149.965057,130.505356 140.948380,120.716026 
	C140.948380,120.716026 140.888901,120.351822 141.446594,119.921280 
	C148.835495,112.539307 156.297195,105.228325 163.588501,97.751175 
	C168.715256,92.493736 168.769379,85.341850 164.002182,80.382378 
	C159.446564,75.643013 151.848358,75.556389 146.561462,80.452286 
	C143.285309,83.486145 140.344589,86.882210 136.754990,90.465118 
	C136.476776,90.974060 136.198563,91.483009 135.980331,91.951172 
	C135.980331,91.951172 135.939499,91.891220 135.290558,92.085304 
	C128.548676,98.741821 121.687576,105.283058 115.103867,112.092499 
	C110.126152,117.240891 110.006355,124.082939 114.857903,129.129303 
	C121.071152,135.592056 127.613106,141.738800 134.020065,147.954056 
	C134.020065,147.954056 133.952103,147.952423 134.195984,148.433746 
M74.936813,99.041039 
	C74.936813,99.041039 75.026108,99.187843 75.035538,100.101562 
	C75.042419,114.925636 75.129639,129.750397 75.003311,144.573334 
	C74.968987,148.601212 76.408661,150.393021 80.532753,150.219543 
	C85.022079,150.030685 89.526566,150.096283 94.021713,150.186707 
	C97.402901,150.254715 98.878754,148.715912 98.832207,145.374878 
	C98.716255,137.051422 98.681244,128.726822 98.689835,119.546402 
	C98.725876,109.297615 98.917015,99.046234 98.745811,88.800911 
	C98.622627,81.429146 93.837318,76.896744 86.441483,76.756836 
	C82.648270,76.685081 78.849350,76.914925 74.147873,76.828407 
	C71.673683,76.864929 69.176773,76.700851 66.729820,76.977943 
	C60.856247,77.643066 56.690544,82.818352 57.058216,88.727234 
	C57.435390,94.788857 61.505138,98.795105 67.584000,98.973114 
	C70.055679,99.045494 72.533142,98.920059 74.936813,99.041039 
z"/>
<path fill="#472267" opacity="1.000000" stroke="none" 
	d="
M98.613739,120.402679 
	C98.681244,128.726822 98.716255,137.051422 98.832207,145.374878 
	C98.878754,148.715912 97.402901,150.254715 94.021713,150.186707 
	C89.526566,150.096283 85.022079,150.030685 80.532753,150.219543 
	C76.408661,150.393021 74.968987,148.601212 75.003311,144.573334 
	C75.129639,129.750397 75.042419,114.925636 75.427887,99.581436 
	C88.206894,100.066643 94.297325,105.769058 98.613739,120.402679 
z"/>
<path fill="#01AD8D" opacity="1.000000" stroke="none" 
	d="
M137.253311,90.115677 
	C140.344589,86.882210 143.285309,83.486145 146.561462,80.452286 
	C151.848358,75.556389 159.446564,75.643013 164.002182,80.382378 
	C168.769379,85.341850 168.715256,92.493736 163.588501,97.751175 
	C156.297195,105.228325 148.835495,112.539307 140.882568,119.933861 
	C138.584763,117.364403 136.477859,114.954536 135.191223,112.166176 
	C132.056396,105.372467 133.643936,98.579079 135.939499,91.891220 
	C135.939499,91.891220 135.980331,91.951172 136.179123,91.790611 
	C136.669708,91.125259 136.961517,90.620476 137.253311,90.115677 
z"/>
<path fill="#3F6495" opacity="1.000000" stroke="none" 
	d="
M135.615021,91.988266 
	C133.643936,98.579079 132.056396,105.372467 135.191223,112.166176 
	C136.477859,114.954536 138.584763,117.364403 140.603729,120.149132 
	C140.888901,120.351822 140.948380,120.716026 140.649231,121.047791 
	C138.159073,125.179230 134.938583,128.753433 134.044128,132.837097 
	C132.985779,137.669067 133.934616,142.940674 134.013412,148.021713 
	C127.613106,141.738800 121.071152,135.592056 114.857903,129.129303 
	C110.006355,124.082939 110.126152,117.240891 115.103867,112.092499 
	C121.687576,105.283058 128.548676,98.741821 135.615021,91.988266 
z"/>
<path fill="#EA4925" opacity="1.000000" stroke="none" 
	d="
M98.651794,119.974541 
	C94.297325,105.769058 88.206894,100.066643 75.423172,99.124580 
	C75.026108,99.187843 74.936813,99.041039 74.989838,98.501770 
	C75.046249,90.977821 75.049629,83.993149 75.053009,77.008469 
	C78.849350,76.914925 82.648270,76.685081 86.441483,76.756836 
	C93.837318,76.896744 98.622627,81.429146 98.745811,88.800911 
	C98.917015,99.046234 98.725876,109.297615 98.651794,119.974541 
z"/>
<path fill="#462267" opacity="1.000000" stroke="none" 
	d="
M134.016739,147.987885 
	C133.934616,142.940674 132.985779,137.669067 134.044128,132.837097 
	C134.938583,128.753433 138.159073,125.179230 140.645416,121.232254 
	C149.965057,130.505356 158.989380,139.925751 168.281479,149.625656 
	C157.518188,149.625656 146.600418,149.625656 135.168564,149.183121 
	C134.420334,148.477875 134.186218,148.215149 133.952103,147.952423 
	C133.952103,147.952423 134.020065,147.954056 134.016739,147.987885 
z"/>
<path fill="#F48F21" opacity="1.000000" stroke="none" 
	d="
M74.600441,76.918442 
	C75.049629,83.993149 75.046249,90.977821 75.025421,98.423569 
	C72.533142,98.920059 70.055679,99.045494 67.584000,98.973114 
	C61.505138,98.795105 57.435390,94.788857 57.058216,88.727234 
	C56.690544,82.818352 60.856247,77.643066 66.729820,76.977943 
	C69.176773,76.700851 71.673683,76.864929 74.600441,76.918442 
z"/>
<path fill="#3F6495" opacity="1.000000" stroke="none" 
	d="
M137.004150,90.290405 
	C136.961517,90.620476 136.669708,91.125259 136.149139,91.811005 
	C136.198563,91.483009 136.476776,90.974060 137.004150,90.290405 
z"/>
<path fill="#3F6495" opacity="1.000000" stroke="none" 
	d="
M134.074036,148.193085 
	C134.186218,148.215149 134.420334,148.477875 134.835052,148.933807 
	C134.742432,148.895935 134.469208,148.664841 134.074036,148.193085 
z"/>
</svg>